# xmcd
#
# Track frame offsets:
#	150
#	1357
#	9457
#	16427
#	27475
#	40935
#	45385
#	47427
#	59542
#	64290
#	74007
#	74940
#	78755
#	89722
#	103347
#	108640
#	116397
#	129792
#	131787
#	146157
#	154487
#
# Disc length: 2209 seconds
#
# Revision: 1
# Processed by: cddbd v1.5.1PL0 Copyright (c) Steve Scherf et al.
# Submitted via: CDex 1.50Beta5
#
DISCID=38089f15
DTITLE=B・M・F/ZYYG/BAAD/MANISH - SLAMDUNK
DYEAR=1900
DGENRE=Soundtrack
TTITLE0=スラダン/On Summer
TTITLE1=ZYYG/ぜったいに 誰も
TTITLE2=スラダン/Blue
TTITLE3=スラダン/Ichiro
TTITLE4=スラダン/Brand New Day
TTITLE5=スラダン/Dreamy
TTITLE6=スラダン/Shock!
TTITLE7=スラダン/Cloudy Sunset
TTITLE8=スラダン/Sakuragi Gundan
TTITLE9=スラダン/Nostalgia
TTITLE10=スラダン/Oh! Boy
TTITLE11=スラダン/From Akagi
TTITLE12=スラダン/Channel 42
TTITLE13=スラダン/Dream Again
TTITLE14=スラダン/Tight Rope
TTITLE15=スラダン/Beat The Hero
TTITLE16=スラダン/Go Ahead!
TTITLE17=スラダン/Head Dunk!
TTITLE18=スラダン/Fight!
TTITLE19=BAAD/ENDLESS CHAIN
TTITLE20=MANISH/煌く瞬間に捕らわれて
EXTD=
EXTT0=
EXTT1=
EXTT2=
EXTT3=
EXTT4=
EXTT5=
EXTT6=
EXTT7=
EXTT8=
EXTT9=
EXTT10=
EXTT11=
EXTT12=
EXTT13=
EXTT14=
EXTT15=
EXTT16=
EXTT17=
EXTT18=
EXTT19=
EXTT20=
PLAYORDER=
